<?xml version="1.0" encoding="iso-8859-1"?>
<!-- Uploaded to: SVG Repo, www.svgrepo.com, Generator: SVG Repo Mixer Tools -->
<svg version="1.1" id="Layer_1" xmlns="http://www.w3.org/2000/svg" xmlns:xlink="http://www.w3.org/1999/xlink" 
	 viewBox="0 0 512 512" xml:space="preserve">
<rect x="163.704" y="148.376" style="fill:#FF7224;" width="184.602" height="336.457"/>
<rect x="163.704" y="148.376" style="fill:#FF9755;" width="92.296" height="336.457"/>
<polygon style="fill:#FF7224;" points="345.164,0 345.164,47.368 317.301,47.368 317.301,0 269.932,0 269.932,47.368 
	242.068,47.368 242.068,0 194.699,0 194.699,47.368 166.836,47.368 166.836,0 119.466,0 119.466,123.298 163.701,173.453 
	348.299,173.453 392.534,123.298 392.534,0 "/>
<polygon style="fill:#FF9755;" points="256,47.368 242.068,47.368 242.068,0 194.699,0 194.699,47.368 166.836,47.368 166.836,0 
	119.466,0 119.466,123.298 163.701,173.453 256,173.453 "/>
<path style="fill:#C23700;" d="M95.865,484.833h320.268v-41.325c0-22.189-17.988-40.177-40.177-40.177H136.043
	c-22.189,0-40.177,17.988-40.177,40.177V484.833z"/>
<path style="fill:#FF7224;" d="M256,403.331H136.043c-22.189,0-40.177,17.988-40.177,40.177v41.325H256V403.331z"/>
<polygon style="fill:#C23700;" points="348.299,173.453 163.701,173.453 119.466,123.298 392.534,123.298 "/>
<rect x="64.01" y="457.665" style="fill:#FF7224;" width="383.979" height="54.335"/>
<rect x="64.01" y="457.665" style="fill:#FF9755;" width="191.99" height="54.335"/>
<polygon style="fill:#FF7224;" points="256,123.298 119.466,123.298 163.701,173.453 256,173.453 "/>
</svg>